<svg xmlns="http://www.w3.org/2000/svg" xmlns:xlink="http://www.w3.org/1999/xlink" version="1.1" x="0px" y="0px" viewBox="0 0 100 125" enable-background="new 0 0 100 100" xml:space="preserve"><path d="M51,72h-0.184C50.928,71.686,51,71.352,51,71v-3c0-1.654-1.346-3-3-3H24c-1.654,0-3,1.346-3,3v3  c0,0.352,0.072,0.686,0.184,1H21c-1.654,0-3,1.346-3,3v3c0,1.654,1.346,3,3,3h30c1.654,0,3-1.346,3-3v-3C54,73.346,52.654,72,51,72z   M23,71v-3c0-0.551,0.449-1,1-1h24c0.551,0,1,0.449,1,1v3c0,0.551-0.449,1-1,1H24C23.449,72,23,71.551,23,71z M52,78  c0,0.551-0.449,1-1,1H21c-0.551,0-1-0.449-1-1v-3c0-0.551,0.449-1,1-1h30c0.551,0,1,0.449,1,1V78z M80.293,66.879L55.914,42.5  l4.098-4.098c1.22,1.086,3.006,0.996,4.109-0.108l2.172-2.172c1.17-1.169,1.17-3.073,0-4.242L54.121,19.707  c-1.17-1.17-3.072-1.17-4.242,0l-2.172,2.172c-1.128,1.128-1.157,2.932-0.109,4.109l-14.61,14.61  c-1.177-1.049-2.98-1.02-4.109,0.109l-2.172,2.172c-1.17,1.169-1.17,3.073,0,4.242l12.172,12.172c1.169,1.169,3.072,1.17,4.242,0  l2.172-2.172c1.128-1.128,1.157-2.932,0.109-4.109l4.098-4.098l24.379,24.379c1.169,1.169,3.072,1.17,4.242,0l2.172-2.172  C81.463,69.952,81.463,68.048,80.293,66.879z M44,51.586L34.414,42L49,27.414L58.586,37L44,51.586z M49.121,23.293l2.172-2.172  c0.391-0.391,1.024-0.388,1.414,0l12.172,12.172c0.391,0.39,0.391,1.024,0,1.414l-2.172,2.172c-0.391,0.39-1.023,0.39-1.414,0  L49.121,24.707C48.731,24.317,48.731,23.683,49.121,23.293z M43.879,55.707l-2.172,2.172c-0.39,0.391-1.024,0.391-1.414,0  L28.121,45.707c-0.39-0.39-0.39-1.024,0-1.414l2.172-2.172c0.389-0.39,1.024-0.389,1.414,0l12.172,12.172  C44.269,54.684,44.269,55.316,43.879,55.707z M78.879,69.707l-2.172,2.172c-0.391,0.391-1.023,0.391-1.414,0L50.914,47.5  l3.586-3.586l24.379,24.379C79.27,68.684,79.27,69.316,78.879,69.707z"/><text x="0" y="115" fill="#000000" font-size="5px" font-weight="bold" font-family="'Helvetica Neue', Helvetica, Arial-Unicode, Arial, Sans-serif">Created by Setyo Ari Wibowo</text><text x="0" y="120" fill="#000000" font-size="5px" font-weight="bold" font-family="'Helvetica Neue', Helvetica, Arial-Unicode, Arial, Sans-serif">from the Noun Project</text></svg>